<?xml version="1.0" standalone="no"?>
<!DOCTYPE svg PUBLIC "-//W3C//DTD SVG 20010904//EN"
 "http://www.w3.org/TR/2001/REC-SVG-20010904/DTD/svg10.dtd">
<svg version="1.0" xmlns="http://www.w3.org/2000/svg"
 width="700.000000pt" height="700.000000pt" viewBox="0 0 700.000000 700.000000"
 preserveAspectRatio="xMidYMid meet">
<metadata>
Created by potrace 1.11, written by Peter Selinger 2001-2013
</metadata>
<g transform="translate(0.000000,700.000000) scale(0.100000,-0.100000)"
fill="#000000" stroke="none">
<path d="M6573 6919 c-219 -112 -417 -216 -498 -259 -69 -37 -172 -91 -470
-245 -82 -43 -181 -94 -220 -115 -38 -21 -131 -69 -205 -108 -74 -38 -184 -96
-245 -127 -60 -32 -162 -85 -225 -118 -63 -33 -160 -83 -215 -112 -55 -29
-163 -85 -240 -125 -77 -40 -171 -90 -210 -110 -38 -21 -137 -72 -220 -115
-82 -43 -190 -99 -240 -125 -151 -80 -294 -154 -435 -227 -284 -148 -377 -197
-445 -233 -38 -20 -146 -77 -240 -125 -93 -49 -197 -103 -230 -120 -33 -17
-118 -62 -190 -100 -71 -37 -179 -94 -240 -125 -60 -31 -157 -82 -215 -112
-58 -30 -172 -90 -255 -133 -82 -43 -186 -97 -230 -120 -44 -24 -132 -69 -195
-102 -63 -33 -169 -88 -235 -123 -66 -34 -181 -94 -255 -133 -351 -182 -349
-181 -388 -241 -23 -35 -27 -52 -27 -113 1 -64 4 -77 30 -114 17 -23 41 -51
56 -61 19 -14 291 -116 354 -132 6 -2 17 -6 25 -9 29 -12 405 -139 425 -144
11 -3 29 -8 40 -13 11 -5 36 -14 55 -20 19 -6 179 -61 355 -122 176 -60 325
-111 330 -112 6 -2 17 -6 25 -9 80 -31 280 -94 282 -89 2 4 46 43 98 87 52 44
100 85 105 91 6 6 55 48 110 95 55 46 113 96 130 110 16 15 84 73 150 129 138
118 201 171 299 256 39 33 163 139 276 235 429 366 847 724 908 777 35 30 75
64 90 76 15 11 34 28 43 36 8 8 39 35 69 60 30 25 61 52 70 60 8 8 31 28 50
44 19 15 58 48 85 71 28 24 136 116 240 206 105 89 204 173 220 188 17 14 122
105 235 201 113 96 207 177 210 180 3 3 32 27 65 55 33 27 65 54 71 60 6 5 35
30 64 55 29 25 58 50 64 55 6 6 56 48 111 95 88 75 96 79 66 40 -19 -25 -51
-63 -70 -86 -64 -72 -86 -99 -101 -120 -8 -11 -34 -43 -57 -70 -23 -27 -115
-137 -204 -244 -88 -107 -178 -215 -199 -240 -54 -64 -199 -238 -240 -289 -19
-24 -40 -48 -45 -55 -6 -6 -98 -117 -205 -246 -107 -129 -196 -237 -199 -240
-4 -3 -35 -41 -71 -85 -35 -44 -67 -82 -70 -85 -3 -3 -35 -41 -70 -85 -36 -44
-69 -85 -75 -91 -18 -20 -136 -162 -519 -624 -125 -151 -235 -284 -244 -295
-10 -11 -51 -60 -92 -110 -41 -49 -82 -99 -92 -110 -34 -40 -292 -352 -349
-421 l-57 -71 106 -36 c108 -36 650 -222 947 -323 88 -30 205 -70 260 -89 55
-18 233 -79 395 -135 162 -56 347 -119 410 -140 63 -21 214 -73 335 -115 121
-41 274 -94 340 -116 66 -22 129 -44 140 -48 147 -60 242 -65 314 -18 70 47
90 97 116 287 3 25 8 52 10 60 2 8 7 40 10 70 3 30 8 62 10 70 4 16 13 73 21
135 5 40 10 78 19 125 2 14 7 48 10 75 3 28 8 57 10 65 2 8 7 38 10 65 3 28
10 75 15 105 5 30 12 72 15 94 6 51 14 106 20 136 3 13 7 42 10 65 3 22 10 67
15 100 5 33 12 83 16 110 3 28 8 59 10 69 2 11 8 54 14 96 6 42 12 85 14 96 2
10 7 44 11 74 4 30 9 62 10 70 8 43 16 99 20 135 3 22 10 65 15 95 5 30 12 75
15 100 3 25 8 56 10 70 3 14 9 57 15 97 5 39 16 113 24 165 9 51 18 116 21
143 3 28 10 75 15 105 5 30 12 78 15 105 4 28 8 57 10 65 2 8 7 35 10 60 3 25
8 56 10 70 2 14 7 45 10 70 3 25 8 52 10 60 2 8 7 40 10 70 3 30 8 62 10 70 5
17 16 94 20 130 1 14 5 39 8 55 3 17 9 50 12 75 3 25 7 54 9 65 2 11 7 45 11
75 4 30 9 64 11 75 2 11 6 40 9 65 3 25 10 68 15 95 8 42 15 88 35 240 5 32
35 239 40 266 2 13 9 59 15 102 6 43 13 88 15 100 2 12 9 58 15 102 7 44 14
88 16 99 2 10 5 37 8 60 3 22 12 84 20 136 8 52 18 118 22 145 3 28 7 57 9 65
17 89 26 181 21 213 -19 114 -118 193 -236 186 -21 -2 -97 -34 -187 -80z"/>
<path d="M2550 1170 c0 -589 3 -695 16 -732 37 -106 155 -167 264 -138 60 16
110 68 245 255 64 88 125 171 135 185 101 134 527 716 525 717 -1 2 -67 25
-146 52 -79 27 -304 104 -499 171 -412 141 -527 180 -535 180 -3 0 -5 -310 -5
-690z"/>
</g>
</svg>
